<?xml version="1.0" encoding="UTF-8" standalone="no"?>
<!-- Created with Inkscape (http://www.inkscape.org/) -->

<svg
   xmlns:dc="http://purl.org/dc/elements/1.1/"
   xmlns:cc="http://creativecommons.org/ns#"
   xmlns:rdf="http://www.w3.org/1999/02/22-rdf-syntax-ns#"
   xmlns:svg="http://www.w3.org/2000/svg"
   xmlns="http://www.w3.org/2000/svg"
   xmlns:sodipodi="http://sodipodi.sourceforge.net/DTD/sodipodi-0.dtd"
   xmlns:inkscape="http://www.inkscape.org/namespaces/inkscape"
   width="210mm"
   height="297mm"
   viewBox="0 0 210 297"
   version="1.1"
   id="svg8"
   inkscape:version="0.92.1 r15371"
   sodipodi:docname="AllTrend.svg">
  <defs
     id="defs2">
    <clipPath
       id="clipPath4538"
       clipPathUnits="userSpaceOnUse">
      <path
         inkscape:connector-curvature="0"
         id="path4536"
         d="M 59.04,73.44 H 473.17 V 445.21 H 59.04 Z" />
    </clipPath>
    <clipPath
       id="clipPath4624"
       clipPathUnits="userSpaceOnUse">
      <path
         inkscape:connector-curvature="0"
         id="path4622"
         d="M 59.04,73.44 H 473.17 V 445.21 H 59.04 Z" />
    </clipPath>
  </defs>
  <sodipodi:namedview
     id="base"
     pagecolor="#ffffff"
     bordercolor="#666666"
     borderopacity="1.0"
     inkscape:pageopacity="0.0"
     inkscape:pageshadow="2"
     inkscape:zoom="0.35"
     inkscape:cx="338.8675"
     inkscape:cy="548.57143"
     inkscape:document-units="mm"
     inkscape:current-layer="layer1"
     showgrid="false"
     inkscape:window-width="1330"
     inkscape:window-height="704"
     inkscape:window-x="36"
     inkscape:window-y="27"
     inkscape:window-maximized="1" />
  <metadata
     id="metadata5">
    <rdf:RDF>
      <cc:Work
         rdf:about="">
        <dc:format>image/svg+xml</dc:format>
        <dc:type
           rdf:resource="http://purl.org/dc/dcmitype/StillImage" />
        <dc:title></dc:title>
      </cc:Work>
    </rdf:RDF>
  </metadata>
  <g
     inkscape:label="Layer 1"
     inkscape:groupmode="layer"
     id="layer1">
    <g
       transform="matrix(0.35277777,0,0,-0.35277777,5.135031,180.04532)"
       inkscape:label="All_lines"
       id="g4528">
      <g
         id="g4530" />
      <g
         id="g4532">
        <g
           clip-path="url(#clipPath4538)"
           id="g4534">
          <path
             inkscape:connector-curvature="0"
             id="path4540"
             style="fill:none;stroke:#d7191c;stroke-width:3;stroke-linecap:round;stroke-linejoin:round;stroke-miterlimit:10;stroke-dasharray:none;stroke-opacity:1"
             d="m 147.16,206.19 -54.76,-31.43 115.82,66.48 -76.9,-44.14 28.34,16.26 -24.43,-14.02 -13.28,-7.62 46.28,26.56 -32.82,-18.84 115.24,66.15 -122.61,-70.37 99.53,57.12 -103.88,-59.62 41.47,23.8 25.54,14.66 20.65,11.85 -58.34,-33.49 4.02,2.32 60.13,34.5 197.71,113.47 -95.39,-54.74 130.57,74.94 -118.08,-67.78 36.48,20.94 -118.53,-68.02 -71.07,-40.79 -40.82,-23.43 59.8,34.32 -51.44,-29.52 6.65,3.82 -6.86,-3.94 64.4,36.96 17.18,9.86 -104.18,-59.8 52.99,30.42 52.03,29.86 27.52,15.79 -48.72,-27.96 -89.27,-51.23 35.76,20.52 73.68,42.29 15.34,8.8 -91.19,-52.33 130.51,74.9 -3.39,-1.95 -39.58,-22.71 -67.91,-38.97 12.06,6.92 -14.93,-8.58 -20.44,-11.73 43.47,24.95 24.27,13.93 17.41,9.99 27.39,15.73 17.38,9.97 163.71,93.96 -57.11,-32.78 49.77,28.56 -103.75,-59.54 -110.66,-63.51 -58.4,-33.52 -2.7,-1.55 172.99,99.29 -21.4,-12.28 -10.79,-6.2 79.2,45.46 L 221.93,249.1 154.64,210.48 215.95,245.67 412.17,358.28 309.3,299.25 419.99,362.77 322.88,307.04 234.05,256.06 184.37,227.55 364.14,330.72 210.49,242.53 131,196.91 l 56.67,32.53 205.92,118.18 72.09,41.37 -317.41,-182.16 -7.86,-4.51 98.26,56.39 106.03,60.85 -114.48,-65.7 36.79,21.11 43.92,25.21 -151.21,-86.78 38.02,21.82 -13.33,-7.65 43.2,24.79 44.42,25.5 -106.47,-61.11 161.92,92.93 86.56,49.68 -140.09,-80.4 3.18,1.82" />
        </g>
      </g>
      <g
         id="g4542">
        <path
           inkscape:connector-curvature="0"
           id="path4544"
           style="fill:none;stroke:#000000;stroke-width:0.75;stroke-linecap:round;stroke-linejoin:round;stroke-miterlimit:10;stroke-dasharray:none;stroke-opacity:1"
           d="M 74.38,73.44 H 457.83" />
        <path
           inkscape:connector-curvature="0"
           id="path4546"
           style="fill:none;stroke:#000000;stroke-width:0.75;stroke-linecap:round;stroke-linejoin:round;stroke-miterlimit:10;stroke-dasharray:none;stroke-opacity:1"
           d="m 74.38,73.44 v -7.2" />
        <path
           inkscape:connector-curvature="0"
           id="path4548"
           style="fill:none;stroke:#000000;stroke-width:0.75;stroke-linecap:round;stroke-linejoin:round;stroke-miterlimit:10;stroke-dasharray:none;stroke-opacity:1"
           d="m 170.24,73.44 v -7.2" />
        <path
           inkscape:connector-curvature="0"
           id="path4550"
           style="fill:none;stroke:#000000;stroke-width:0.75;stroke-linecap:round;stroke-linejoin:round;stroke-miterlimit:10;stroke-dasharray:none;stroke-opacity:1"
           d="m 266.11,73.44 v -7.2" />
        <path
           inkscape:connector-curvature="0"
           id="path4552"
           style="fill:none;stroke:#000000;stroke-width:0.75;stroke-linecap:round;stroke-linejoin:round;stroke-miterlimit:10;stroke-dasharray:none;stroke-opacity:1"
           d="m 361.97,73.44 v -7.2" />
        <path
           inkscape:connector-curvature="0"
           id="path4554"
           style="fill:none;stroke:#000000;stroke-width:0.75;stroke-linecap:round;stroke-linejoin:round;stroke-miterlimit:10;stroke-dasharray:none;stroke-opacity:1"
           d="m 457.83,73.44 v -7.2" />
        <text
           id="text4558"
           style="font-variant:normal;font-weight:normal;font-size:17px;font-family:Helvetica;-inkscape-font-specification:Helvetica;writing-mode:lr-tb;fill:#000000;fill-opacity:1;fill-rule:nonzero;stroke:none"
           transform="matrix(1,0,0,-1,50.75,47.52)">
          <tspan
             id="tspan4556"
             sodipodi:role="line"
             y="0"
             x="0 9.4519997 18.903999 28.356001 37.807999">25000</tspan>
        </text>
        <text
           id="text4562"
           style="font-variant:normal;font-weight:normal;font-size:17px;font-family:Helvetica;-inkscape-font-specification:Helvetica;writing-mode:lr-tb;fill:#000000;fill-opacity:1;fill-rule:nonzero;stroke:none"
           transform="matrix(1,0,0,-1,146.61,47.52)">
          <tspan
             id="tspan4560"
             sodipodi:role="line"
             y="0"
             x="0 9.4519997 18.903999 28.356001 37.807999">30000</tspan>
        </text>
        <text
           id="text4566"
           style="font-variant:normal;font-weight:normal;font-size:17px;font-family:Helvetica;-inkscape-font-specification:Helvetica;writing-mode:lr-tb;fill:#000000;fill-opacity:1;fill-rule:nonzero;stroke:none"
           transform="matrix(1,0,0,-1,242.48,47.52)">
          <tspan
             id="tspan4564"
             sodipodi:role="line"
             y="0"
             x="0 9.4519997 18.903999 28.356001 37.807999">35000</tspan>
        </text>
        <text
           id="text4570"
           style="font-variant:normal;font-weight:normal;font-size:17px;font-family:Helvetica;-inkscape-font-specification:Helvetica;writing-mode:lr-tb;fill:#000000;fill-opacity:1;fill-rule:nonzero;stroke:none"
           transform="matrix(1,0,0,-1,338.34,47.52)">
          <tspan
             id="tspan4568"
             sodipodi:role="line"
             y="0"
             x="0 9.4519997 18.903999 28.356001 37.807999">40000</tspan>
        </text>
        <text
           id="text4574"
           style="font-variant:normal;font-weight:normal;font-size:17px;font-family:Helvetica;-inkscape-font-specification:Helvetica;writing-mode:lr-tb;fill:#000000;fill-opacity:1;fill-rule:nonzero;stroke:none"
           transform="matrix(1,0,0,-1,434.2,47.52)">
          <tspan
             id="tspan4572"
             sodipodi:role="line"
             y="0"
             x="0 9.4519997 18.903999 28.356001 37.807999">45000</tspan>
        </text>
        <path
           inkscape:connector-curvature="0"
           id="path4576"
           style="fill:none;stroke:#000000;stroke-width:0.75;stroke-linecap:round;stroke-linejoin:round;stroke-miterlimit:10;stroke-dasharray:none;stroke-opacity:1"
           d="M 59.04,87.21 V 431.44" />
        <path
           inkscape:connector-curvature="0"
           id="path4578"
           style="fill:none;stroke:#000000;stroke-width:0.75;stroke-linecap:round;stroke-linejoin:round;stroke-miterlimit:10;stroke-dasharray:none;stroke-opacity:1"
           d="m 59.04,87.21 h -7.2" />
        <path
           inkscape:connector-curvature="0"
           id="path4580"
           style="fill:none;stroke:#000000;stroke-width:0.75;stroke-linecap:round;stroke-linejoin:round;stroke-miterlimit:10;stroke-dasharray:none;stroke-opacity:1"
           d="m 59.04,173.27 h -7.2" />
        <path
           inkscape:connector-curvature="0"
           id="path4582"
           style="fill:none;stroke:#000000;stroke-width:0.75;stroke-linecap:round;stroke-linejoin:round;stroke-miterlimit:10;stroke-dasharray:none;stroke-opacity:1"
           d="m 59.04,259.33 h -7.2" />
        <path
           inkscape:connector-curvature="0"
           id="path4584"
           style="fill:none;stroke:#000000;stroke-width:0.75;stroke-linecap:round;stroke-linejoin:round;stroke-miterlimit:10;stroke-dasharray:none;stroke-opacity:1"
           d="m 59.04,345.39 h -7.2" />
        <path
           inkscape:connector-curvature="0"
           id="path4586"
           style="fill:none;stroke:#000000;stroke-width:0.75;stroke-linecap:round;stroke-linejoin:round;stroke-miterlimit:10;stroke-dasharray:none;stroke-opacity:1"
           d="m 59.04,431.44 h -7.2" />
        <text
           id="text4590"
           style="font-variant:normal;font-weight:normal;font-size:17px;font-family:Helvetica;-inkscape-font-specification:Helvetica;writing-mode:lr-tb;fill:#000000;fill-opacity:1;fill-rule:nonzero;stroke:none"
           transform="matrix(0,1,1,0,41.76,77.76)">
          <tspan
             id="tspan4588"
             sodipodi:role="line"
             y="0"
             x="0 9.4519997">50</tspan>
        </text>
        <text
           id="text4594"
           style="font-variant:normal;font-weight:normal;font-size:17px;font-family:Helvetica;-inkscape-font-specification:Helvetica;writing-mode:lr-tb;fill:#000000;fill-opacity:1;fill-rule:nonzero;stroke:none"
           transform="matrix(0,1,1,0,41.76,159.09)">
          <tspan
             id="tspan4592"
             sodipodi:role="line"
             y="0"
             x="0 9.4519997 18.903999">100</tspan>
        </text>
        <text
           id="text4598"
           style="font-variant:normal;font-weight:normal;font-size:17px;font-family:Helvetica;-inkscape-font-specification:Helvetica;writing-mode:lr-tb;fill:#000000;fill-opacity:1;fill-rule:nonzero;stroke:none"
           transform="matrix(0,1,1,0,41.76,245.15)">
          <tspan
             id="tspan4596"
             sodipodi:role="line"
             y="0"
             x="0 9.4519997 18.903999">150</tspan>
        </text>
        <text
           id="text4602"
           style="font-variant:normal;font-weight:normal;font-size:17px;font-family:Helvetica;-inkscape-font-specification:Helvetica;writing-mode:lr-tb;fill:#000000;fill-opacity:1;fill-rule:nonzero;stroke:none"
           transform="matrix(0,1,1,0,41.76,331.21)">
          <tspan
             id="tspan4600"
             sodipodi:role="line"
             y="0"
             x="0 9.4519997 18.903999">200</tspan>
        </text>
        <text
           id="text4606"
           style="font-variant:normal;font-weight:normal;font-size:17px;font-family:Helvetica;-inkscape-font-specification:Helvetica;writing-mode:lr-tb;fill:#000000;fill-opacity:1;fill-rule:nonzero;stroke:none"
           transform="matrix(0,1,1,0,41.76,417.27)">
          <tspan
             id="tspan4604"
             sodipodi:role="line"
             y="0"
             x="0 9.4519997 18.903999">250</tspan>
        </text>
      </g>
      <g
         id="g4608">
        <text
           id="text4612"
           style="font-variant:normal;font-weight:normal;font-size:17px;font-family:Helvetica;-inkscape-font-specification:Helvetica;writing-mode:lr-tb;fill:#000000;fill-opacity:1;fill-rule:nonzero;stroke:none"
           transform="matrix(1,0,0,-1,205.33,18.72)">
          <tspan
             id="tspan4610"
             sodipodi:role="line"
             y="0"
             x="0 10.659 18.733999 28.186001 33.676998 43.129002 52.581001 62.033001 66.759003 70.532997 79.985001 88.485001 97.936996 112.098">Average income</tspan>
        </text>
        <text
           id="text4616"
           style="font-variant:normal;font-weight:normal;font-size:17px;font-family:Helvetica;-inkscape-font-specification:Helvetica;writing-mode:lr-tb;fill:#000000;fill-opacity:1;fill-rule:nonzero;stroke:none"
           transform="matrix(0,1,1,0,12.96,146.59)">
          <tspan
             id="tspan4614"
             sodipodi:role="line"
             y="0"
             x="0 12.274 21.726 31.177999 35.903999 41.82 45.594002 54.706001 64.157997 68.884003 72.657997 82.110001 91.561996 96.288002 101.014 110.466 115.192 123.692 127.466 132.192 135.966 144.211 153.66299 163.11501 167.841 176.341 184.841 188.61501 198.067 207.519 216.019">Contribution to citizen science</tspan>
        </text>
      </g>
      <g
         id="g4618">
        <g
           clip-path="url(#clipPath4624)"
           id="g4620">
          <path
             inkscape:connector-curvature="0"
             id="path4626"
             style="fill:none;stroke:#fdae61;stroke-width:3;stroke-linecap:round;stroke-linejoin:round;stroke-miterlimit:10;stroke-dasharray:none;stroke-opacity:1"
             d="m 147.16,261.27 -54.76,2.81 115.82,-5.95 -76.9,3.95 28.34,-1.45 -24.43,1.25 -13.28,0.69 46.28,-2.38 -32.82,1.68 115.24,-5.92 -122.61,6.3 99.53,-5.11 -103.88,5.34 41.47,-2.13 25.54,-1.32 20.65,-1.06 -58.34,3 4.02,-0.21 60.13,-3.09 197.71,-10.15 -95.39,4.9 130.57,-6.71 -118.08,6.07 36.48,-1.88 -118.53,6.09 -71.07,3.65 -40.82,2.1 59.8,-3.07 -51.44,2.64 6.65,-0.34 -6.86,0.35 64.4,-3.31 17.18,-0.88 -104.18,5.35 52.99,-2.72 52.03,-2.67 27.52,-1.42 -48.72,2.51 -89.27,4.58 35.76,-1.84 73.68,-3.78 15.34,-0.79 -91.19,4.69 130.51,-6.71 -3.39,0.18 -39.58,2.03 -67.91,3.49 12.06,-0.62 -14.93,0.76 -20.44,1.05 43.47,-2.23 24.27,-1.25 17.41,-0.89 27.39,-1.41 17.38,-0.89 163.71,-8.41 -57.11,2.93 49.77,-2.55 -103.75,5.33 -110.66,5.68 -58.4,3 -2.7,0.14 172.99,-8.89 -21.4,1.1 -10.79,0.56 79.2,-4.07 -156.89,8.06 -67.29,3.46 61.31,-3.15 196.22,-10.08 -102.87,5.28 110.69,-5.69 -97.11,4.99 -88.83,4.57 -49.68,2.55 179.77,-9.24 -153.65,7.9 -79.49,4.08 56.67,-2.91 205.92,-10.58 72.09,-3.7 -317.41,16.3 -7.86,0.41 98.26,-5.05 106.03,-5.45 -114.48,5.88 36.79,-1.89 43.92,-2.25 -151.21,7.76 38.02,-1.95 -13.33,0.69 43.2,-2.22 44.42,-2.28 -106.47,5.46 161.92,-8.31 86.56,-4.45 -140.09,7.2 3.18,-0.17" />
          <path
             inkscape:connector-curvature="0"
             id="path4628"
             style="fill:none;stroke:#91cf60;stroke-width:3;stroke-linecap:round;stroke-linejoin:round;stroke-miterlimit:10;stroke-dasharray:none;stroke-opacity:1"
             d="m 147.16,265.49 -54.76,5.43 115.82,-11.49 -76.9,7.63 28.34,-2.81 -24.43,2.42 -13.28,1.32 46.28,-4.59 -32.82,3.25 115.24,-11.43 -122.61,12.16 99.53,-9.87 -103.88,10.31 41.47,-4.12 25.54,-2.53 20.65,-2.05 -58.34,5.79 4.02,-0.4 60.13,-5.97 197.71,-19.62 -95.39,9.47 130.57,-12.96 -118.08,11.72 36.48,-3.62 -118.53,11.76 -71.07,7.05 -40.82,4.05 59.8,-5.93 -51.44,5.1 6.65,-0.66 -6.86,0.68 64.4,-6.39 17.18,-1.7 -104.18,10.34 52.99,-5.26 52.03,-5.17 27.52,-2.73 -48.72,4.84 -89.27,8.86 35.76,-3.55 73.68,-7.31 15.34,-1.53 -91.19,9.05 130.51,-12.95 -3.39,0.34 -39.58,3.93 -67.91,6.74 12.06,-1.2 -14.93,1.48 -20.44,2.03 43.47,-4.31 24.27,-2.41 17.41,-1.73 27.39,-2.72 17.38,-1.72 163.71,-16.25 -57.11,5.67 49.77,-4.94 -103.75,10.29 -110.66,10.99 -58.4,5.79 -2.7,0.27 172.99,-17.17 -21.4,2.13 -10.79,1.07 79.2,-7.86 -156.89,15.57 -67.29,6.67 61.31,-6.08 196.22,-19.47 -102.87,10.21 110.69,-10.99 -97.11,9.64 -88.83,8.81 -49.68,4.93 179.77,-17.84 -153.65,15.25 -79.49,7.89 56.67,-5.62 205.92,-20.44 72.09,-7.15 -317.41,31.5 -7.86,0.78 98.26,-9.75 106.03,-10.53 -114.48,11.36 36.79,-3.65 43.92,-4.36 -151.21,15.01 38.02,-3.77 -13.33,1.32 43.2,-4.29 44.42,-4.41 -106.47,10.57 161.92,-16.07 86.56,-8.59 -140.09,13.9 3.18,-0.31" />
          <path
             inkscape:connector-curvature="0"
             id="path4630"
             style="fill:none;stroke:#1a9850;stroke-width:3;stroke-linecap:round;stroke-linejoin:round;stroke-miterlimit:10;stroke-dasharray:none;stroke-opacity:1"
             d="m 147.16,256.86 -54.76,0.07 115.82,-0.15 -76.9,0.1 28.34,-0.04 -24.43,0.03 -13.28,0.02 46.28,-0.06 -32.82,0.04 115.24,-0.15 -122.61,0.16 99.53,-0.13 -103.88,0.14 41.47,-0.05 25.54,-0.04 20.65,-0.02 -58.34,0.07 h 4.02 l 60.13,-0.08 197.71,-0.26 -95.39,0.13 130.57,-0.17 -118.08,0.15 36.48,-0.05 -118.53,0.16 -71.07,0.09 -40.82,0.05 59.8,-0.08 -51.44,0.07 6.65,-0.01 -6.86,0.01 64.4,-0.08 17.18,-0.03 -104.18,0.14 52.99,-0.07 52.03,-0.07 27.52,-0.03 -48.72,0.06 -89.27,0.12 35.76,-0.05 73.68,-0.1 15.34,-0.02 -91.19,0.12 130.51,-0.17 -3.39,0.01 -39.58,0.05 -67.91,0.09 12.06,-0.02 -14.93,0.02 -20.44,0.03 43.47,-0.06 24.27,-0.03 17.41,-0.02 27.39,-0.04 17.38,-0.02 163.71,-0.21 -57.11,0.07 49.77,-0.06 -103.75,0.13 -110.66,0.14 -58.4,0.08 h -2.7 l 172.99,-0.22 -21.4,0.03 -10.79,0.01 79.2,-0.1 -156.89,0.2 -67.29,0.09 61.31,-0.08 196.22,-0.25 -102.87,0.13 110.69,-0.14 -97.11,0.12 -88.83,0.12 -49.68,0.06 179.77,-0.23 -153.65,0.2 -79.49,0.1 56.67,-0.07 205.92,-0.27 72.09,-0.09 -317.41,0.41 -7.86,0.01 98.26,-0.13 106.03,-0.14 -114.48,0.15 36.79,-0.05 43.92,-0.05 -151.21,0.19 38.02,-0.05 -13.33,0.02 43.2,-0.06 44.42,-0.05 -106.47,0.14 161.92,-0.21 86.56,-0.12 -140.09,0.18 h 3.18" />
          <path
             inkscape:connector-curvature="0"
             id="path4632"
             style="fill:none;stroke:#4575b4;stroke-width:3;stroke-linecap:round;stroke-linejoin:round;stroke-miterlimit:10;stroke-dasharray:none;stroke-opacity:1"
             d="m 147.16,259.57 -54.76,1.76 115.82,-3.72 -76.9,2.47 28.34,-0.91 -24.43,0.78 -13.28,0.43 46.28,-1.49 -32.82,1.06 115.24,-3.7 -122.61,3.93 99.53,-3.19 -103.88,3.33 41.47,-1.33 25.54,-0.82 20.65,-0.66 -58.34,1.87 4.02,-0.13 60.13,-1.92 197.71,-6.35 -95.39,3.06 130.57,-4.19 -118.08,3.79 36.48,-1.17 -118.53,3.8 -71.07,2.28 -40.82,1.31 59.8,-1.92 -51.44,1.65 6.65,-0.21 -6.86,0.22 64.4,-2.06 17.18,-0.56 -104.18,3.35 52.99,-1.7 52.03,-1.67 27.52,-0.88 -48.72,1.56 -89.27,2.86 35.76,-1.15 73.68,-2.36 15.34,-0.49 -91.19,2.92 130.51,-4.18 -3.39,0.11 -39.58,1.27 -67.91,2.17 12.06,-0.38 -14.93,0.48 -20.44,0.65 43.47,-1.39 24.27,-0.78 17.41,-0.56 27.39,-0.88 17.38,-0.56 163.71,-5.25 -57.11,1.84 49.77,-1.6 -103.75,3.33 -110.66,3.55 -58.4,1.87 -2.7,0.09 172.99,-5.55 -21.4,0.68 -10.79,0.35 79.2,-2.54 -156.89,5.03 -67.29,2.16 61.31,-1.97 196.22,-6.29 -102.87,3.3 110.69,-3.55 -97.11,3.11 -88.83,2.85 -49.68,1.6 179.77,-5.77 -153.65,4.93 -79.49,2.55 56.67,-1.82 205.92,-6.6 72.09,-2.32 -317.41,10.18 -7.86,0.26 98.26,-3.15 106.03,-3.41 -114.48,3.68 36.79,-1.18 43.92,-1.41 -151.21,4.85 38.02,-1.22 -13.33,0.43 43.2,-1.39 44.42,-1.43 -106.47,3.42 161.92,-5.19 86.56,-2.78 -140.09,4.49 3.18,-0.1" />
        </g>
      </g>
    </g>
  </g>
</svg>
